<svg xmlns="http://www.w3.org/2000/svg" viewBox="0 0 512 512" width="100%" height="100%">
  <defs>
    <linearGradient id="favPrimary" x1="0%" y1="0%" x2="100%" y2="100%">
      <stop offset="0%" stop-color="#38bdf8"/>
      <stop offset="50%" stop-color="#06b6d4"/>
      <stop offset="100%" stop-color="#10b981"/>
    </linearGradient>
    <linearGradient id="favSecondary" x1="100%" y1="0%" x2="0%" y2="100%">
      <stop offset="0%" stop-color="#60a5fa"/>
      <stop offset="100%" stop-color="#3b82f6"/>
    </linearGradient>
  </defs>
  <rect width="512" height="512" rx="128" fill="#070b14"/>
  <rect width="496" height="496" x="8" y="8" rx="120" fill="none" stroke="url(#favPrimary)" stroke-width="8" stroke-opacity="0.4"/>
  
  <g transform="translate(10, 10)">
    <path d="M 140 144 L 320 144 C 330 144 338 152 338 162 L 338 180 C 338 190 330 198 320 198 L 208 198 L 208 220 L 294 220 C 304 220 312 228 312 238 L 312 256 C 312 266 304 274 294 274 L 208 274 L 208 356 C 208 366 200 374 190 374 L 162 374 C 152 374 144 366 144 356 Z" fill="url(#favPrimary)"/>
    <path d="M 358 144 L 328 144 L 232 306 L 344 306 C 354 306 362 314 362 324 L 362 342 C 362 352 354 360 344 360 L 218 360 C 208 360 202 350 206 340 L 314 164 L 226 164 L 226 144 L 358 144 Z" fill="url(#favSecondary)"/>
    <circle cx="266" cy="238" r="14" fill="#070b14" stroke="#38bdf8" stroke-width="5"/>
    <circle cx="266" cy="238" r="6" fill="#10b981"/>
  </g>
</svg>
